<mxfile host="app.diagrams.net" modified="2023-05-04T14:15:32.333Z" agent="Mozilla/5.0 (Windows NT 10.0; Win64; x64) AppleWebKit/537.36 (KHTML, like Gecko) Chrome/112.0.0.0 Safari/537.36 Edg/112.0.1722.68" etag="ycbJqSWBwwTL3Fozljj-" version="21.1.0" type="device">
  <diagram name="Page-1" id="JdWL_OMKFNONgFxTrIUk">
    <mxGraphModel dx="1173" dy="623" grid="1" gridSize="10" guides="1" tooltips="1" connect="1" arrows="1" fold="1" page="1" pageScale="1" pageWidth="850" pageHeight="1100" math="0" shadow="0">
      <root>
        <mxCell id="0" />
        <mxCell id="1" parent="0" />
        <mxCell id="YbfumGP91216IVIQ6gtz-9" style="edgeStyle=orthogonalEdgeStyle;rounded=0;orthogonalLoop=1;jettySize=auto;html=1;endArrow=none;endFill=0;" edge="1" parent="1" source="YbfumGP91216IVIQ6gtz-1" target="YbfumGP91216IVIQ6gtz-3">
          <mxGeometry relative="1" as="geometry" />
        </mxCell>
        <mxCell id="YbfumGP91216IVIQ6gtz-1" value="User" style="verticalAlign=top;align=left;spacingTop=8;spacingLeft=2;spacingRight=12;shape=cube;size=10;direction=south;fontStyle=4;html=1;whiteSpace=wrap;" vertex="1" parent="1">
          <mxGeometry x="70" y="120" width="180" height="120" as="geometry" />
        </mxCell>
        <mxCell id="YbfumGP91216IVIQ6gtz-2" value="Web Browser" style="shape=module;align=left;spacingLeft=20;align=center;verticalAlign=top;whiteSpace=wrap;html=1;" vertex="1" parent="1">
          <mxGeometry x="110" y="155" width="100" height="50" as="geometry" />
        </mxCell>
        <mxCell id="YbfumGP91216IVIQ6gtz-10" style="edgeStyle=orthogonalEdgeStyle;rounded=0;orthogonalLoop=1;jettySize=auto;html=1;entryX=0.496;entryY=0.997;entryDx=0;entryDy=0;entryPerimeter=0;endArrow=none;endFill=0;" edge="1" parent="1" source="YbfumGP91216IVIQ6gtz-3" target="YbfumGP91216IVIQ6gtz-5">
          <mxGeometry relative="1" as="geometry" />
        </mxCell>
        <mxCell id="YbfumGP91216IVIQ6gtz-3" value="Web Server" style="verticalAlign=top;align=left;spacingTop=8;spacingLeft=2;spacingRight=12;shape=cube;size=10;direction=south;fontStyle=4;html=1;whiteSpace=wrap;" vertex="1" parent="1">
          <mxGeometry x="320" y="120" width="180" height="120" as="geometry" />
        </mxCell>
        <mxCell id="YbfumGP91216IVIQ6gtz-4" value="FrontEnd-Nuxt&lt;br&gt;" style="shape=module;align=left;spacingLeft=20;align=center;verticalAlign=top;whiteSpace=wrap;html=1;" vertex="1" parent="1">
          <mxGeometry x="350" y="155" width="120" height="55" as="geometry" />
        </mxCell>
        <mxCell id="YbfumGP91216IVIQ6gtz-11" style="edgeStyle=orthogonalEdgeStyle;rounded=0;orthogonalLoop=1;jettySize=auto;html=1;endArrow=none;endFill=0;" edge="1" parent="1" source="YbfumGP91216IVIQ6gtz-5" target="YbfumGP91216IVIQ6gtz-7">
          <mxGeometry relative="1" as="geometry" />
        </mxCell>
        <mxCell id="YbfumGP91216IVIQ6gtz-5" value="Application Server" style="verticalAlign=top;align=left;spacingTop=8;spacingLeft=2;spacingRight=12;shape=cube;size=10;direction=south;fontStyle=4;html=1;whiteSpace=wrap;" vertex="1" parent="1">
          <mxGeometry x="570" y="120" width="180" height="120" as="geometry" />
        </mxCell>
        <mxCell id="YbfumGP91216IVIQ6gtz-6" value="Backend - Django" style="shape=module;align=left;spacingLeft=20;align=center;verticalAlign=top;whiteSpace=wrap;html=1;" vertex="1" parent="1">
          <mxGeometry x="600" y="157.5" width="120" height="50" as="geometry" />
        </mxCell>
        <mxCell id="YbfumGP91216IVIQ6gtz-7" value="Database" style="verticalAlign=top;align=left;spacingTop=8;spacingLeft=2;spacingRight=12;shape=cube;size=10;direction=south;fontStyle=4;html=1;whiteSpace=wrap;" vertex="1" parent="1">
          <mxGeometry x="570" y="270" width="180" height="120" as="geometry" />
        </mxCell>
        <mxCell id="YbfumGP91216IVIQ6gtz-8" value="Postgres SQL" style="shape=module;align=left;spacingLeft=20;align=center;verticalAlign=top;whiteSpace=wrap;html=1;" vertex="1" parent="1">
          <mxGeometry x="610" y="305" width="100" height="50" as="geometry" />
        </mxCell>
      </root>
    </mxGraphModel>
  </diagram>
</mxfile>
